<?xml version="1.0" standalone="no"?>
<!DOCTYPE svg PUBLIC "-//W3C//DTD SVG 20010904//EN"
 "http://www.w3.org/TR/2001/REC-SVG-20010904/DTD/svg10.dtd">
<svg version="1.0" xmlns="http://www.w3.org/2000/svg"
 width="800.000000pt" height="800.000000pt" viewBox="0 0 800.000000 800.000000"
 preserveAspectRatio="xMidYMid meet">
<metadata>
Created by potrace 1.14, written by Peter Selinger 2001-2017
</metadata>
<g transform="translate(0.000000,800.000000) scale(0.100000,-0.100000)"
fill="#000000" stroke="none">
<path d="M3870 6273 c-36 -15 -72 -48 -90 -83 -20 -39 -20 -65 -20 -1577 l0
-1539 23 -44 c44 -89 156 -114 235 -54 66 51 62 -61 62 1642 l0 1549 -22 33
c-35 50 -71 72 -125 76 -26 2 -55 1 -63 -3z"/>
<path d="M6285 5370 c-38 -10 -1388 -613 -1422 -635 -29 -19 -62 -87 -63 -128
0 -38 22 -87 52 -115 14 -13 341 -165 727 -338 754 -337 747 -335 821 -295 52
27 80 74 80 133 0 113 1 112 -595 379 -288 129 -521 237 -517 240 4 3 238 108
520 234 283 126 525 237 538 248 58 45 73 146 31 207 -38 57 -110 87 -172 70z"/>
<path d="M1387 4276 c-70 -26 -107 -76 -107 -147 0 -56 58 -250 127 -424 300
-757 860 -1368 1590 -1734 429 -214 912 -336 1368 -343 142 -3 152 -2 188 21
106 66 99 222 -13 279 -36 18 -61 22 -135 22 -49 0 -139 5 -200 10 -1217 112
-2233 943 -2581 2110 -43 144 -61 175 -118 201 -48 22 -68 23 -119 5z"/>
</g>
</svg>
